<svg width="331" height="76" viewBox="0 0 331 76" fill="none" xmlns="http://www.w3.org/2000/svg">
<mask id="mask0_383_18" style="mask-type:alpha" maskUnits="userSpaceOnUse" x="0" y="0" width="76" height="76">
<circle cx="38" cy="38" r="38" fill="#D9D9D9"/>
</mask>
<g mask="url(#mask0_383_18)">
<rect width="76" height="76" fill="#212121"/>
<rect width="76" height="76" fill="url(#paint0_linear_383_18)" fill-opacity="0.75"/>
<g style="mix-blend-mode:overlay">
<path d="M19.2649 58.9775C16.7398 58.9775 14.8308 58.3474 13.5382 57.0872C12.2456 55.827 11.5992 54.0117 11.5992 51.6414V42.3699C11.5992 41.6198 11.4189 41.0797 11.0581 40.7496C10.6974 40.3896 10.2014 40.2095 9.57008 40.2095H8.08203V35.6188H9.57008C10.2014 35.6188 10.6974 35.4388 11.0581 35.0787C11.4189 34.7187 11.5992 34.1786 11.5992 33.4585V24.187C11.5992 21.7866 12.2456 19.9713 13.5382 18.7411C14.8308 17.4809 16.7398 16.8508 19.2649 16.8508H21.5195V21.3515H20.5726C19.4603 21.3515 18.6186 21.6516 18.0474 22.2517C17.5063 22.8518 17.2358 23.6919 17.2358 24.7721V33.3234C17.2358 34.5236 17.0855 35.4538 16.7848 36.1139C16.4842 36.774 16.0032 37.2691 15.3419 37.5991C14.7106 37.8992 13.8839 38.1242 12.8618 38.2742V37.5541C13.8839 37.6741 14.7106 37.8992 15.3419 38.2292C16.0032 38.5593 16.4842 39.0544 16.7848 39.7145C17.0855 40.3746 17.2358 41.3047 17.2358 42.5049V51.0563C17.2358 52.1364 17.5063 52.9766 18.0474 53.5767C18.6186 54.1768 19.4603 54.4768 20.5726 54.4768H21.5195V58.9775H19.2649Z" fill="white"/>
<path d="M33.835 50.2461H29.8308V25.1141H39.2461C41.651 25.1141 43.4788 25.7863 44.7293 27.1305C46.0039 28.4747 46.6412 30.323 46.6412 32.6753C46.6412 34.5956 46.1723 36.1799 45.2344 37.4281C44.2964 38.6763 42.9497 39.4444 41.1941 39.7325L47.002 50.2461H42.5288L37.1899 40.0925H33.835V50.2461ZM38.6689 36.852C41.17 36.852 42.4206 35.7118 42.4206 33.4315V31.8832C42.4206 29.6029 41.17 28.4627 38.6689 28.4627H33.835V36.852H38.6689Z" fill="white"/>
<path d="M56.8631 58.9775H54.6085V54.4768H55.5554C56.6978 54.4768 57.5395 54.1768 58.0806 53.5767C58.6518 52.9766 58.9373 52.1364 58.9373 51.0563V42.5049C58.9373 41.3047 59.0877 40.3746 59.3883 39.7145C59.7189 39.0544 60.1999 38.5593 60.8312 38.2292C61.4625 37.8992 62.2742 37.6741 63.2662 37.5541V38.2742C62.2742 38.1242 61.4625 37.8992 60.8312 37.5991C60.1999 37.2691 59.7189 36.774 59.3883 36.1139C59.0877 35.4538 58.9373 34.5236 58.9373 33.3234V24.7721C58.9373 23.6919 58.6518 22.8518 58.0806 22.2517C57.5395 21.6516 56.6978 21.3515 55.5554 21.3515H54.6085V16.8508H56.8631C59.4183 16.8508 61.3423 17.4809 62.6349 18.7411C63.9276 19.9713 64.5739 21.7866 64.5739 24.187V33.4585C64.5739 34.1786 64.7543 34.7187 65.115 35.0787C65.4757 35.4388 65.9567 35.6188 66.5579 35.6188H68.0911V40.2095H66.5579C65.9567 40.2095 65.4757 40.3896 65.115 40.7496C64.7543 41.0797 64.5739 41.6198 64.5739 42.3699V51.6414C64.5739 54.0117 63.9276 55.827 62.6349 57.0872C61.3423 58.3474 59.4183 58.9775 56.8631 58.9775Z" fill="white"/>
</g>
<g style="mix-blend-mode:overlay">
<path d="M19.2649 58.9775C16.7398 58.9775 14.8308 58.3474 13.5382 57.0872C12.2456 55.827 11.5992 54.0117 11.5992 51.6414V42.3699C11.5992 41.6198 11.4189 41.0797 11.0581 40.7496C10.6974 40.3896 10.2014 40.2095 9.57008 40.2095H8.08203V35.6188H9.57008C10.2014 35.6188 10.6974 35.4388 11.0581 35.0787C11.4189 34.7187 11.5992 34.1786 11.5992 33.4585V24.187C11.5992 21.7866 12.2456 19.9713 13.5382 18.7411C14.8308 17.4809 16.7398 16.8508 19.2649 16.8508H21.5195V21.3515H20.5726C19.4603 21.3515 18.6186 21.6516 18.0474 22.2517C17.5063 22.8518 17.2358 23.6919 17.2358 24.7721V33.3234C17.2358 34.5236 17.0855 35.4538 16.7848 36.1139C16.4842 36.774 16.0032 37.2691 15.3419 37.5991C14.7106 37.8992 13.8839 38.1242 12.8618 38.2742V37.5541C13.8839 37.6741 14.7106 37.8992 15.3419 38.2292C16.0032 38.5593 16.4842 39.0544 16.7848 39.7145C17.0855 40.3746 17.2358 41.3047 17.2358 42.5049V51.0563C17.2358 52.1364 17.5063 52.9766 18.0474 53.5767C18.6186 54.1768 19.4603 54.4768 20.5726 54.4768H21.5195V58.9775H19.2649Z" fill="white"/>
<path d="M33.835 50.2461H29.8308V25.1141H39.2461C41.651 25.1141 43.4788 25.7863 44.7293 27.1305C46.0039 28.4747 46.6412 30.323 46.6412 32.6753C46.6412 34.5956 46.1723 36.1799 45.2344 37.4281C44.2964 38.6763 42.9497 39.4444 41.1941 39.7325L47.002 50.2461H42.5288L37.1899 40.0925H33.835V50.2461ZM38.6689 36.852C41.17 36.852 42.4206 35.7118 42.4206 33.4315V31.8832C42.4206 29.6029 41.17 28.4627 38.6689 28.4627H33.835V36.852H38.6689Z" fill="white"/>
<path d="M56.8631 58.9775H54.6085V54.4768H55.5554C56.6978 54.4768 57.5395 54.1768 58.0806 53.5767C58.6518 52.9766 58.9373 52.1364 58.9373 51.0563V42.5049C58.9373 41.3047 59.0877 40.3746 59.3883 39.7145C59.7189 39.0544 60.1999 38.5593 60.8312 38.2292C61.4625 37.8992 62.2742 37.6741 63.2662 37.5541V38.2742C62.2742 38.1242 61.4625 37.8992 60.8312 37.5991C60.1999 37.2691 59.7189 36.774 59.3883 36.1139C59.0877 35.4538 58.9373 34.5236 58.9373 33.3234V24.7721C58.9373 23.6919 58.6518 22.8518 58.0806 22.2517C57.5395 21.6516 56.6978 21.3515 55.5554 21.3515H54.6085V16.8508H56.8631C59.4183 16.8508 61.3423 17.4809 62.6349 18.7411C63.9276 19.9713 64.5739 21.7866 64.5739 24.187V33.4585C64.5739 34.1786 64.7543 34.7187 65.115 35.0787C65.4757 35.4388 65.9567 35.6188 66.5579 35.6188H68.0911V40.2095H66.5579C65.9567 40.2095 65.4757 40.3896 65.115 40.7496C64.7543 41.0797 64.5739 41.6198 64.5739 42.3699V51.6414C64.5739 54.0117 63.9276 55.827 62.6349 57.0872C61.3423 58.3474 59.4183 58.9775 56.8631 58.9775Z" fill="white"/>
</g>
</g>
<path d="M104.736 31.32C104.032 31.32 103.317 31.2347 102.592 31.064C101.888 30.9147 101.184 30.6693 100.48 30.328C99.776 29.9653 99.0613 29.5067 98.336 28.952C97.632 28.376 96.9067 27.6827 96.16 26.872C95.4347 26.0613 94.688 25.1227 93.92 24.056C93.8347 24.056 93.7173 24.056 93.568 24.056C93.4187 24.056 93.28 24.056 93.152 24.056C92.9813 24.056 92.8 24.056 92.608 24.056C92.4373 24.056 92.256 24.056 92.064 24.056V31H85.568V8.6C86.9547 8.536 88.224 8.48267 89.376 8.44C90.528 8.39733 91.584 8.36533 92.544 8.344C93.504 8.32267 94.3573 8.312 95.104 8.312C96.9173 8.312 98.4747 8.45067 99.776 8.728C101.077 9.00533 102.133 9.432 102.944 10.008C103.776 10.584 104.384 11.3307 104.768 12.248C105.152 13.144 105.344 14.2 105.344 15.416C105.344 16.6533 105.152 17.7307 104.768 18.648C104.384 19.544 103.851 20.28 103.168 20.856C102.485 21.432 101.675 21.8693 100.736 22.168C101.184 22.6587 101.621 23.0853 102.048 23.448C102.496 23.8107 102.912 24.1093 103.296 24.344C103.701 24.5787 104.085 24.76 104.448 24.888C104.832 24.9947 105.205 25.048 105.568 25.048C105.653 25.048 105.739 25.048 105.824 25.048C105.931 25.0267 106.027 25.016 106.112 25.016V31.192C105.963 31.2133 105.771 31.2347 105.536 31.256C105.323 31.2987 105.056 31.32 104.736 31.32ZM95.136 19.608C95.7547 19.608 96.2773 19.544 96.704 19.416C97.152 19.288 97.5147 19.096 97.792 18.84C98.0907 18.5627 98.304 18.2213 98.432 17.816C98.5813 17.3893 98.656 16.8773 98.656 16.28C98.656 15.576 98.56 15.0107 98.368 14.584C98.176 14.136 97.824 13.816 97.312 13.624C96.8213 13.4107 96.1387 13.304 95.264 13.304C94.9653 13.304 94.7093 13.304 94.496 13.304C94.2827 13.304 94.0587 13.3147 93.824 13.336C93.6107 13.336 93.3653 13.3467 93.088 13.368C92.8107 13.368 92.4693 13.3893 92.064 13.432V19.512C92.3413 19.5333 92.5867 19.5547 92.8 19.576C93.0133 19.576 93.2267 19.5867 93.44 19.608C93.6747 19.608 93.92 19.608 94.176 19.608C94.4533 19.608 94.7733 19.608 95.136 19.608ZM114.921 37.72L117.065 31H116.361L109.993 13.496L116.905 13.464L119.913 26.008L122.921 13.464L129.545 13.496L121.609 37.752L114.921 37.72ZM133.084 25.976C133.084 24.9093 133.276 24.0347 133.66 23.352C134.044 22.6693 134.641 22.1253 135.452 21.72C136.263 21.2933 137.287 20.9733 138.524 20.76C139.783 20.5253 141.287 20.3547 143.036 20.248V19.704C143.036 19.2133 142.78 18.8613 142.268 18.648C141.777 18.4347 141.084 18.328 140.188 18.328C139.74 18.328 139.217 18.3493 138.62 18.392C138.044 18.4347 137.436 18.52 136.796 18.648C136.177 18.7547 135.548 18.8933 134.908 19.064L133.948 14.2C134.929 13.9013 136.028 13.656 137.244 13.464C138.46 13.272 139.601 13.176 140.668 13.176C142.716 13.176 144.359 13.4213 145.596 13.912C146.855 14.4027 147.772 15.128 148.348 16.088C148.924 17.048 149.212 18.232 149.212 19.64V24.792C149.212 25.2613 149.276 25.5813 149.404 25.752C149.532 25.9013 149.681 25.976 149.852 25.976C149.959 25.976 150.065 25.9653 150.172 25.944C150.3 25.9227 150.417 25.9013 150.524 25.88L151.004 30.328C150.535 30.6267 149.991 30.8613 149.372 31.032C148.775 31.224 148.113 31.32 147.388 31.32C146.449 31.32 145.671 31.1707 145.052 30.872C144.433 30.552 143.953 30.0933 143.612 29.496C143.057 29.88 142.503 30.2107 141.948 30.488C141.415 30.7653 140.839 30.968 140.22 31.096C139.601 31.2453 138.897 31.32 138.108 31.32C137.383 31.32 136.711 31.2027 136.092 30.968C135.473 30.712 134.94 30.3493 134.492 29.88C134.044 29.4107 133.692 28.856 133.436 28.216C133.201 27.5547 133.084 26.808 133.084 25.976ZM139.42 25.592C139.42 26.1893 139.537 26.6267 139.772 26.904C140.007 27.1813 140.316 27.32 140.7 27.32C140.913 27.32 141.159 27.288 141.436 27.224C141.735 27.1387 142.033 27.032 142.332 26.904C142.631 26.7547 142.865 26.584 143.036 26.392V23.512C142.375 23.5333 141.809 23.5867 141.34 23.672C140.892 23.7573 140.519 23.8747 140.22 24.024C139.943 24.1733 139.74 24.376 139.612 24.632C139.484 24.888 139.42 25.208 139.42 25.592ZM155.902 31V13.496H161.566V15C162.291 14.552 162.952 14.2 163.55 13.944C164.168 13.688 164.776 13.496 165.374 13.368C165.971 13.24 166.59 13.176 167.23 13.176C168.403 13.176 169.374 13.3893 170.142 13.816C170.931 14.2427 171.507 14.84 171.87 15.608C172.254 16.376 172.446 17.272 172.446 18.296V31H166.142V20.408C166.142 19.6827 165.992 19.1707 165.694 18.872C165.395 18.5733 165 18.424 164.51 18.424C164.275 18.424 164.03 18.456 163.774 18.52C163.518 18.5627 163.262 18.6373 163.006 18.744C162.75 18.8293 162.483 18.936 162.206 19.064V31H155.902ZM190.699 30.872V8.728C192.001 8.62133 193.195 8.536 194.283 8.472C195.393 8.408 196.417 8.36533 197.355 8.344C198.294 8.30133 199.158 8.28 199.947 8.28C202.145 8.28 203.905 8.472 205.227 8.856C206.55 9.21867 207.51 9.79467 208.107 10.584C208.705 11.3733 209.003 12.408 209.003 13.688C209.003 14.84 208.747 15.8213 208.235 16.632C207.745 17.4213 206.945 18.0613 205.835 18.552V18.616C207.222 19.0427 208.299 19.7573 209.067 20.76C209.835 21.7627 210.219 22.9573 210.219 24.344C210.219 25.6027 210.038 26.68 209.675 27.576C209.334 28.472 208.769 29.1973 207.979 29.752C207.19 30.2853 206.134 30.68 204.811 30.936C203.51 31.192 201.899 31.32 199.979 31.32C199.275 31.32 198.657 31.3093 198.123 31.288C197.611 31.288 197.131 31.2773 196.683 31.256C196.235 31.256 195.755 31.2347 195.243 31.192C194.731 31.1493 194.113 31.1067 193.387 31.064C192.662 31.0213 191.766 30.9573 190.699 30.872ZM197.227 17.528H200.875C201.302 17.528 201.665 17.4533 201.963 17.304C202.283 17.1547 202.518 16.9307 202.667 16.632C202.817 16.3333 202.891 15.9707 202.891 15.544C202.891 15.032 202.795 14.6267 202.603 14.328C202.411 14.008 202.091 13.784 201.643 13.656C201.217 13.5067 200.609 13.432 199.819 13.432C199.606 13.432 199.414 13.432 199.243 13.432C199.073 13.432 198.923 13.4427 198.795 13.464C198.667 13.464 198.529 13.4747 198.379 13.496C198.23 13.496 198.059 13.5067 197.867 13.528C197.675 13.528 197.462 13.5387 197.227 13.56V17.528ZM197.227 26.072C197.462 26.0933 197.697 26.1147 197.931 26.136C198.166 26.1573 198.379 26.1787 198.571 26.2C198.785 26.2 198.987 26.2 199.179 26.2C199.371 26.2 199.553 26.2 199.723 26.2C200.726 26.2 201.505 26.136 202.059 26.008C202.614 25.8587 202.998 25.6347 203.211 25.336C203.425 25.016 203.531 24.5893 203.531 24.056C203.531 23.3093 203.329 22.776 202.923 22.456C202.518 22.136 201.803 21.976 200.779 21.976H197.227V26.072ZM221.063 13.496V15.48C221.661 14.9253 222.194 14.4773 222.663 14.136C223.133 13.7947 223.602 13.5493 224.071 13.4C224.562 13.2507 225.106 13.176 225.703 13.176C226.023 13.176 226.365 13.208 226.727 13.272C227.09 13.3147 227.474 13.4 227.879 13.528L226.887 19.224C226.503 19.1173 226.119 19.0427 225.735 19C225.373 18.9573 225.031 18.936 224.711 18.936C224.242 18.936 223.762 19 223.271 19.128C222.781 19.2347 222.247 19.4693 221.671 19.832V31H215.399V13.496H221.063ZM231.215 25.976C231.215 24.9093 231.407 24.0347 231.791 23.352C232.175 22.6693 232.773 22.1253 233.583 21.72C234.394 21.2933 235.418 20.9733 236.655 20.76C237.914 20.5253 239.418 20.3547 241.167 20.248V19.704C241.167 19.2133 240.911 18.8613 240.399 18.648C239.909 18.4347 239.215 18.328 238.319 18.328C237.871 18.328 237.349 18.3493 236.751 18.392C236.175 18.4347 235.567 18.52 234.927 18.648C234.309 18.7547 233.679 18.8933 233.039 19.064L232.079 14.2C233.061 13.9013 234.159 13.656 235.375 13.464C236.591 13.272 237.733 13.176 238.799 13.176C240.847 13.176 242.49 13.4213 243.727 13.912C244.986 14.4027 245.903 15.128 246.479 16.088C247.055 17.048 247.343 18.232 247.343 19.64V24.792C247.343 25.2613 247.407 25.5813 247.535 25.752C247.663 25.9013 247.813 25.976 247.983 25.976C248.09 25.976 248.197 25.9653 248.303 25.944C248.431 25.9227 248.549 25.9013 248.655 25.88L249.135 30.328C248.666 30.6267 248.122 30.8613 247.503 31.032C246.906 31.224 246.245 31.32 245.519 31.32C244.581 31.32 243.802 31.1707 243.183 30.872C242.565 30.552 242.085 30.0933 241.743 29.496C241.189 29.88 240.634 30.2107 240.079 30.488C239.546 30.7653 238.97 30.968 238.351 31.096C237.733 31.2453 237.029 31.32 236.239 31.32C235.514 31.32 234.842 31.2027 234.223 30.968C233.605 30.712 233.071 30.3493 232.623 29.88C232.175 29.4107 231.823 28.856 231.567 28.216C231.333 27.5547 231.215 26.808 231.215 25.976ZM237.551 25.592C237.551 26.1893 237.669 26.6267 237.903 26.904C238.138 27.1813 238.447 27.32 238.831 27.32C239.045 27.32 239.29 27.288 239.567 27.224C239.866 27.1387 240.165 27.032 240.463 26.904C240.762 26.7547 240.997 26.584 241.167 26.392V23.512C240.506 23.5333 239.941 23.5867 239.471 23.672C239.023 23.7573 238.65 23.8747 238.351 24.024C238.074 24.1733 237.871 24.376 237.743 24.632C237.615 24.888 237.551 25.208 237.551 25.592ZM265.049 31.064L264.345 29.784C263.513 30.296 262.67 30.68 261.817 30.936C260.985 31.192 260.11 31.32 259.193 31.32C257.251 31.32 255.758 30.5733 254.713 29.08C253.689 27.5653 253.177 25.3787 253.177 22.52C253.177 20.4293 253.486 18.6907 254.105 17.304C254.723 15.9173 255.673 14.8827 256.953 14.2C258.233 13.5173 259.854 13.176 261.817 13.176C262.201 13.176 262.606 13.1867 263.033 13.208C263.459 13.2293 263.865 13.272 264.249 13.336V7.32H270.585V31.064H265.049ZM264.249 25.496V18.04C263.907 17.912 263.566 17.8267 263.225 17.784C262.905 17.7413 262.574 17.72 262.233 17.72C261.657 17.72 261.177 17.848 260.793 18.104C260.43 18.36 260.153 18.7867 259.961 19.384C259.79 19.9813 259.705 20.824 259.705 21.912C259.705 22.9573 259.769 23.7893 259.897 24.408C260.046 25.0267 260.27 25.4747 260.569 25.752C260.889 26.008 261.273 26.136 261.721 26.136C261.977 26.136 262.233 26.1147 262.489 26.072C262.766 26.0293 263.054 25.9547 263.353 25.848C263.651 25.7413 263.95 25.624 264.249 25.496ZM282.887 7.32V24.28C282.887 24.728 282.941 25.08 283.047 25.336C283.154 25.5707 283.303 25.7307 283.495 25.816C283.709 25.9013 283.943 25.944 284.199 25.944C284.391 25.944 284.594 25.9227 284.807 25.88C285.042 25.8373 285.309 25.7733 285.607 25.688L286.151 30.456C285.661 30.6907 285.085 30.8933 284.423 31.064C283.762 31.2347 283.037 31.32 282.247 31.32C280.989 31.32 279.943 31.1173 279.111 30.712C278.279 30.2853 277.65 29.6027 277.223 28.664C276.818 27.704 276.615 26.4453 276.615 24.888V7.32H282.887ZM299.115 31.32C297.685 31.32 296.416 31.16 295.307 30.84C294.197 30.52 293.259 30.008 292.491 29.304C291.723 28.6 291.136 27.6933 290.731 26.584C290.325 25.4533 290.123 24.1093 290.123 22.552C290.123 20.8667 290.336 19.4267 290.763 18.232C291.211 17.016 291.84 16.0453 292.651 15.32C293.461 14.5733 294.421 14.0293 295.531 13.688C296.64 13.3467 297.856 13.176 299.179 13.176C301.867 13.176 303.84 13.8267 305.099 15.128C306.379 16.4293 307.019 18.5413 307.019 21.464C307.019 21.6987 307.008 22.008 306.987 22.392C306.987 22.7547 306.976 23.096 306.955 23.416C306.379 23.4587 305.696 23.512 304.907 23.576C304.139 23.64 303.296 23.704 302.379 23.768C301.483 23.832 300.544 23.896 299.563 23.96C298.581 24.0027 297.589 24.0453 296.587 24.088C296.587 24.1307 296.587 24.1733 296.587 24.216C296.587 24.2587 296.587 24.312 296.587 24.376C296.608 24.824 296.725 25.208 296.939 25.528C297.173 25.8267 297.557 26.0613 298.091 26.232C298.645 26.3813 299.371 26.456 300.267 26.456C300.843 26.456 301.451 26.424 302.091 26.36C302.731 26.296 303.392 26.2107 304.075 26.104C304.779 25.976 305.483 25.8373 306.187 25.688L306.923 30.168C306.112 30.4453 305.291 30.6693 304.459 30.84C303.648 30.9893 302.805 31.1067 301.931 31.192C301.056 31.2773 300.117 31.32 299.115 31.32ZM296.619 20.568C297.003 20.568 297.387 20.5573 297.771 20.536C298.155 20.5147 298.528 20.504 298.891 20.504C299.275 20.4827 299.627 20.4613 299.947 20.44C300.267 20.4187 300.544 20.408 300.779 20.408C300.757 19.6613 300.672 19.0853 300.523 18.68C300.373 18.2533 300.16 17.9547 299.883 17.784C299.605 17.6133 299.253 17.528 298.827 17.528C298.549 17.528 298.283 17.5707 298.027 17.656C297.792 17.7413 297.579 17.9013 297.387 18.136C297.195 18.3493 297.035 18.6587 296.907 19.064C296.779 19.448 296.683 19.9493 296.619 20.568ZM315.527 37.72L317.671 31H316.967L310.599 13.496L317.511 13.464L320.519 26.008L323.527 13.464L330.151 13.496L322.215 37.752L315.527 37.72ZM104.224 69H101.344L96.672 51.208L91.936 69H89.216L84.224 46.632L87.136 46.536L90.752 65.96L95.488 47.432H98.016L102.688 65.928L106.304 46.536L109.216 46.632L104.224 69ZM116.562 69.32C115.388 69.32 114.343 69.16 113.426 68.84C112.508 68.52 111.73 68.0187 111.09 67.336C110.471 66.6533 109.991 65.7787 109.65 64.712C109.33 63.6453 109.17 62.3653 109.17 60.872C109.17 59.144 109.362 57.6827 109.746 56.488C110.151 55.272 110.716 54.3013 111.442 53.576C112.167 52.8507 112.999 52.328 113.938 52.008C114.898 51.688 115.943 51.528 117.074 51.528C119.25 51.528 120.871 52.1147 121.938 53.288C123.004 54.44 123.538 56.3173 123.538 58.92C123.538 59.048 123.527 59.2293 123.506 59.464C123.506 59.6987 123.495 59.9227 123.474 60.136C123.026 60.1573 122.418 60.2 121.65 60.264C120.903 60.328 120.028 60.392 119.026 60.456C118.023 60.52 116.924 60.5733 115.73 60.616C114.535 60.6587 113.276 60.6907 111.954 60.712C111.932 60.8187 111.922 60.9253 111.922 61.032C111.922 61.1387 111.922 61.256 111.922 61.384C111.922 62.7707 112.114 63.8907 112.498 64.744C112.903 65.576 113.479 66.184 114.226 66.568C114.994 66.952 115.922 67.144 117.01 67.144C117.692 67.144 118.386 67.112 119.09 67.048C119.794 66.9627 120.466 66.856 121.106 66.728C121.767 66.6 122.375 66.472 122.93 66.344L123.282 68.36C122.706 68.552 122.055 68.7227 121.33 68.872C120.626 69.0213 119.879 69.128 119.09 69.192C118.3 69.2773 117.458 69.32 116.562 69.32ZM111.986 58.856C113.01 58.856 113.991 58.8453 114.93 58.824C115.89 58.7813 116.764 58.7387 117.554 58.696C118.364 58.6533 119.047 58.6107 119.602 58.568C120.156 58.5253 120.562 58.4933 120.818 58.472C120.796 57.2773 120.647 56.3173 120.37 55.592C120.092 54.8667 119.666 54.344 119.09 54.024C118.514 53.6827 117.778 53.512 116.882 53.512C116.327 53.512 115.783 53.5973 115.25 53.768C114.716 53.9173 114.215 54.1947 113.746 54.6C113.298 54.984 112.914 55.528 112.594 56.232C112.295 56.9147 112.092 57.7893 111.986 58.856ZM126.017 68.552V45.32H128.673V53.384C129.633 52.744 130.561 52.2747 131.457 51.976C132.353 51.6773 133.26 51.528 134.177 51.528C136.033 51.528 137.452 52.2533 138.433 53.704C139.436 55.1547 139.937 57.2453 139.937 59.976C139.937 62.1733 139.66 63.9653 139.105 65.352C138.551 66.7173 137.687 67.72 136.513 68.36C135.34 69 133.825 69.32 131.969 69.32C131.116 69.32 130.199 69.256 129.217 69.128C128.236 69 127.169 68.808 126.017 68.552ZM128.673 66.92C129.356 67.048 129.964 67.1547 130.497 67.24C131.031 67.304 131.532 67.336 132.001 67.336C133.196 67.336 134.167 67.1013 134.913 66.632C135.681 66.1627 136.247 65.4053 136.609 64.36C136.993 63.2933 137.185 61.8853 137.185 60.136C137.185 58.728 137.025 57.5653 136.705 56.648C136.407 55.7093 135.959 55.0053 135.361 54.536C134.785 54.0453 134.081 53.8 133.249 53.8C132.759 53.8 132.268 53.8533 131.777 53.96C131.308 54.0667 130.817 54.2373 130.305 54.472C129.815 54.6853 129.271 54.9947 128.673 55.4V66.92ZM158.135 69.32C157.325 69.32 156.503 69.3093 155.671 69.288C154.839 69.2667 154.007 69.2347 153.175 69.192C152.365 69.1493 151.554 69.1173 150.743 69.096V46.568C151.618 46.504 152.45 46.4507 153.239 46.408C154.05 46.3653 154.829 46.3333 155.575 46.312C156.343 46.2907 157.122 46.28 157.911 46.28C160.322 46.28 162.285 46.6853 163.799 47.496C165.314 48.2853 166.423 49.5333 167.127 51.24C167.831 52.9253 168.183 55.1333 168.183 57.864C168.183 60.5093 167.81 62.6747 167.063 64.36C166.317 66.0453 165.197 67.2933 163.703 68.104C162.231 68.9147 160.375 69.32 158.135 69.32ZM158.135 67.08C159.735 67.08 161.058 66.7813 162.103 66.184C163.17 65.5653 163.97 64.584 164.503 63.24C165.037 61.8747 165.303 60.0827 165.303 57.864C165.303 55.5813 165.047 53.7573 164.535 52.392C164.023 51.0267 163.223 50.0453 162.135 49.448C161.069 48.8293 159.671 48.52 157.943 48.52C157.559 48.52 157.111 48.5307 156.599 48.552C156.087 48.5733 155.565 48.5947 155.031 48.616C154.498 48.6373 153.997 48.6587 153.527 48.68V66.92C153.847 66.9413 154.21 66.9627 154.615 66.984C155.042 67.0053 155.458 67.0267 155.863 67.048C156.29 67.048 156.695 67.0587 157.079 67.08C157.485 67.08 157.837 67.08 158.135 67.08ZM177.471 69.32C176.297 69.32 175.252 69.16 174.335 68.84C173.417 68.52 172.639 68.0187 171.999 67.336C171.38 66.6533 170.9 65.7787 170.559 64.712C170.239 63.6453 170.079 62.3653 170.079 60.872C170.079 59.144 170.271 57.6827 170.655 56.488C171.06 55.272 171.625 54.3013 172.351 53.576C173.076 52.8507 173.908 52.328 174.847 52.008C175.807 51.688 176.852 51.528 177.983 51.528C180.159 51.528 181.78 52.1147 182.847 53.288C183.913 54.44 184.447 56.3173 184.447 58.92C184.447 59.048 184.436 59.2293 184.415 59.464C184.415 59.6987 184.404 59.9227 184.383 60.136C183.935 60.1573 183.327 60.2 182.559 60.264C181.812 60.328 180.937 60.392 179.935 60.456C178.932 60.52 177.833 60.5733 176.639 60.616C175.444 60.6587 174.185 60.6907 172.863 60.712C172.841 60.8187 172.831 60.9253 172.831 61.032C172.831 61.1387 172.831 61.256 172.831 61.384C172.831 62.7707 173.023 63.8907 173.407 64.744C173.812 65.576 174.388 66.184 175.135 66.568C175.903 66.952 176.831 67.144 177.919 67.144C178.601 67.144 179.295 67.112 179.999 67.048C180.703 66.9627 181.375 66.856 182.015 66.728C182.676 66.6 183.284 66.472 183.839 66.344L184.191 68.36C183.615 68.552 182.964 68.7227 182.239 68.872C181.535 69.0213 180.788 69.128 179.999 69.192C179.209 69.2773 178.367 69.32 177.471 69.32ZM172.895 58.856C173.919 58.856 174.9 58.8453 175.839 58.824C176.799 58.7813 177.673 58.7387 178.463 58.696C179.273 58.6533 179.956 58.6107 180.511 58.568C181.065 58.5253 181.471 58.4933 181.727 58.472C181.705 57.2773 181.556 56.3173 181.279 55.592C181.001 54.8667 180.575 54.344 179.999 54.024C179.423 53.6827 178.687 53.512 177.791 53.512C177.236 53.512 176.692 53.5973 176.159 53.768C175.625 53.9173 175.124 54.1947 174.655 54.6C174.207 54.984 173.823 55.528 173.503 56.232C173.204 56.9147 173.001 57.7893 172.895 58.856ZM191.222 69L184.918 51.912L187.734 51.752L192.758 66.344L197.686 51.752L200.47 51.912L194.134 69H191.222ZM208.159 69.32C206.986 69.32 205.941 69.16 205.023 68.84C204.106 68.52 203.327 68.0187 202.687 67.336C202.069 66.6533 201.589 65.7787 201.247 64.712C200.927 63.6453 200.767 62.3653 200.767 60.872C200.767 59.144 200.959 57.6827 201.343 56.488C201.749 55.272 202.314 54.3013 203.039 53.576C203.765 52.8507 204.597 52.328 205.535 52.008C206.495 51.688 207.541 51.528 208.671 51.528C210.847 51.528 212.469 52.1147 213.535 53.288C214.602 54.44 215.135 56.3173 215.135 58.92C215.135 59.048 215.125 59.2293 215.103 59.464C215.103 59.6987 215.093 59.9227 215.071 60.136C214.623 60.1573 214.015 60.2 213.247 60.264C212.501 60.328 211.626 60.392 210.623 60.456C209.621 60.52 208.522 60.5733 207.327 60.616C206.133 60.6587 204.874 60.6907 203.551 60.712C203.53 60.8187 203.519 60.9253 203.519 61.032C203.519 61.1387 203.519 61.256 203.519 61.384C203.519 62.7707 203.711 63.8907 204.095 64.744C204.501 65.576 205.077 66.184 205.823 66.568C206.591 66.952 207.519 67.144 208.607 67.144C209.29 67.144 209.983 67.112 210.687 67.048C211.391 66.9627 212.063 66.856 212.703 66.728C213.365 66.6 213.973 66.472 214.527 66.344L214.879 68.36C214.303 68.552 213.653 68.7227 212.927 68.872C212.223 69.0213 211.477 69.128 210.687 69.192C209.898 69.2773 209.055 69.32 208.159 69.32ZM203.583 58.856C204.607 58.856 205.589 58.8453 206.527 58.824C207.487 58.7813 208.362 58.7387 209.151 58.696C209.962 58.6533 210.645 58.6107 211.199 58.568C211.754 58.5253 212.159 58.4933 212.415 58.472C212.394 57.2773 212.245 56.3173 211.967 55.592C211.69 54.8667 211.263 54.344 210.687 54.024C210.111 53.6827 209.375 53.512 208.479 53.512C207.925 53.512 207.381 53.5973 206.847 53.768C206.314 53.9173 205.813 54.1947 205.343 54.6C204.895 54.984 204.511 55.528 204.191 56.232C203.893 56.9147 203.69 57.7893 203.583 58.856ZM220.24 45.32V64.264C220.24 65.0107 220.314 65.5867 220.464 65.992C220.634 66.376 220.858 66.632 221.136 66.76C221.434 66.888 221.754 66.952 222.096 66.952C222.33 66.952 222.576 66.9307 222.832 66.888C223.109 66.8453 223.397 66.7707 223.696 66.664L223.984 68.808C223.621 68.9573 223.216 69.0747 222.768 69.16C222.32 69.2667 221.861 69.32 221.392 69.32C220.602 69.32 219.92 69.1813 219.344 68.904C218.768 68.6267 218.33 68.136 218.032 67.432C217.733 66.728 217.584 65.7467 217.584 64.488V45.32H220.24ZM224.3 60.392C224.3 58.8773 224.428 57.5653 224.684 56.456C224.94 55.3253 225.356 54.408 225.932 53.704C226.508 52.9787 227.276 52.4347 228.236 52.072C229.196 51.7093 230.38 51.528 231.788 51.528C233.196 51.528 234.38 51.7093 235.34 52.072C236.321 52.4347 237.1 52.9787 237.676 53.704C238.252 54.408 238.668 55.3253 238.924 56.456C239.18 57.5653 239.308 58.8773 239.308 60.392C239.308 61.9493 239.169 63.2933 238.892 64.424C238.614 65.5547 238.177 66.4827 237.58 67.208C236.982 67.912 236.204 68.4453 235.244 68.808C234.305 69.1493 233.153 69.32 231.788 69.32C230.444 69.32 229.292 69.1493 228.332 68.808C227.393 68.4453 226.625 67.912 226.028 67.208C225.43 66.4827 224.993 65.5547 224.716 64.424C224.438 63.2933 224.3 61.9493 224.3 60.392ZM227.02 60.392C227.02 62.0773 227.18 63.4213 227.5 64.424C227.841 65.4267 228.364 66.152 229.068 66.6C229.772 67.0267 230.678 67.24 231.788 67.24C232.918 67.24 233.836 67.0267 234.54 66.6C235.244 66.152 235.756 65.4267 236.076 64.424C236.396 63.4213 236.556 62.0773 236.556 60.392C236.556 58.728 236.406 57.4053 236.108 56.424C235.83 55.4213 235.34 54.7067 234.636 54.28C233.932 53.832 232.982 53.608 231.788 53.608C230.614 53.608 229.676 53.832 228.972 54.28C228.268 54.7067 227.766 55.4213 227.468 56.424C227.169 57.4053 227.02 58.728 227.02 60.392ZM241.897 75.72V51.72H244.329L244.425 53.448C245.407 52.7867 246.356 52.3067 247.273 52.008C248.212 51.688 249.151 51.528 250.089 51.528C251.924 51.528 253.332 52.264 254.313 53.736C255.316 55.1867 255.817 57.2773 255.817 60.008C255.817 62.1413 255.54 63.9013 254.985 65.288C254.431 66.6533 253.577 67.6667 252.425 68.328C251.295 68.9893 249.855 69.32 248.105 69.32C247.593 69.32 247.039 69.288 246.441 69.224C245.865 69.16 245.247 69.064 244.585 68.936V75.72H241.897ZM247.881 67.304C249.076 67.304 250.047 67.08 250.793 66.632C251.561 66.1627 252.127 65.4053 252.489 64.36C252.873 63.3147 253.065 61.9387 253.065 60.232C253.065 58.8027 252.905 57.608 252.585 56.648C252.287 55.688 251.839 54.9733 251.241 54.504C250.665 54.0133 249.951 53.768 249.097 53.768C248.628 53.768 248.148 53.8213 247.657 53.928C247.188 54.0347 246.697 54.2053 246.185 54.44C245.695 54.6533 245.151 54.9627 244.553 55.368V66.856C245.236 67.0053 245.844 67.1227 246.377 67.208C246.911 67.272 247.412 67.304 247.881 67.304ZM258.414 69V51.848H260.846V53.352C261.443 52.968 262.04 52.648 262.638 52.392C263.235 52.136 263.843 51.9333 264.462 51.784C265.102 51.6347 265.752 51.56 266.414 51.56C267.075 51.56 267.64 51.6453 268.11 51.816C268.6 51.9653 269.016 52.1893 269.358 52.488C269.699 52.7653 269.976 53.1067 270.19 53.512C270.744 53.1493 271.32 52.8293 271.918 52.552C272.536 52.2533 273.198 52.008 273.902 51.816C274.627 51.624 275.406 51.528 276.238 51.528C276.878 51.528 277.443 51.6133 277.934 51.784C278.446 51.9333 278.872 52.1573 279.214 52.456C279.555 52.7547 279.832 53.1067 280.046 53.512C280.28 53.896 280.44 54.3227 280.526 54.792C280.632 55.2613 280.686 55.7413 280.686 56.232V69H277.998V56.968C277.998 56.6053 277.955 56.2427 277.87 55.88C277.784 55.496 277.635 55.1547 277.422 54.856C277.23 54.536 276.942 54.2907 276.558 54.12C276.174 53.928 275.683 53.832 275.086 53.832C274.51 53.832 273.955 53.9067 273.422 54.056C272.888 54.184 272.387 54.3547 271.918 54.568C271.47 54.7813 271.054 55.0053 270.67 55.24C270.755 55.496 270.808 55.7627 270.83 56.04C270.872 56.3173 270.894 56.584 270.894 56.84V69H268.238V57.032C268.238 56.648 268.195 56.2747 268.11 55.912C268.024 55.528 267.875 55.1867 267.662 54.888C267.448 54.5893 267.15 54.344 266.766 54.152C266.403 53.96 265.923 53.864 265.326 53.864C264.814 53.864 264.323 53.928 263.854 54.056C263.384 54.1627 262.915 54.3227 262.446 54.536C261.998 54.728 261.539 54.9627 261.07 55.24V69H258.414ZM290.647 69.32C289.473 69.32 288.428 69.16 287.511 68.84C286.593 68.52 285.815 68.0187 285.175 67.336C284.556 66.6533 284.076 65.7787 283.735 64.712C283.415 63.6453 283.255 62.3653 283.255 60.872C283.255 59.144 283.447 57.6827 283.831 56.488C284.236 55.272 284.801 54.3013 285.527 53.576C286.252 52.8507 287.084 52.328 288.023 52.008C288.983 51.688 290.028 51.528 291.159 51.528C293.335 51.528 294.956 52.1147 296.023 53.288C297.089 54.44 297.623 56.3173 297.623 58.92C297.623 59.048 297.612 59.2293 297.591 59.464C297.591 59.6987 297.58 59.9227 297.559 60.136C297.111 60.1573 296.503 60.2 295.735 60.264C294.988 60.328 294.113 60.392 293.111 60.456C292.108 60.52 291.009 60.5733 289.815 60.616C288.62 60.6587 287.361 60.6907 286.039 60.712C286.017 60.8187 286.007 60.9253 286.007 61.032C286.007 61.1387 286.007 61.256 286.007 61.384C286.007 62.7707 286.199 63.8907 286.583 64.744C286.988 65.576 287.564 66.184 288.311 66.568C289.079 66.952 290.007 67.144 291.095 67.144C291.777 67.144 292.471 67.112 293.175 67.048C293.879 66.9627 294.551 66.856 295.191 66.728C295.852 66.6 296.46 66.472 297.015 66.344L297.367 68.36C296.791 68.552 296.14 68.7227 295.415 68.872C294.711 69.0213 293.964 69.128 293.175 69.192C292.385 69.2773 291.543 69.32 290.647 69.32ZM286.071 58.856C287.095 58.856 288.076 58.8453 289.015 58.824C289.975 58.7813 290.849 58.7387 291.639 58.696C292.449 58.6533 293.132 58.6107 293.687 58.568C294.241 58.5253 294.647 58.4933 294.903 58.472C294.881 57.2773 294.732 56.3173 294.455 55.592C294.177 54.8667 293.751 54.344 293.175 54.024C292.599 53.6827 291.863 53.512 290.967 53.512C290.412 53.512 289.868 53.5973 289.335 53.768C288.801 53.9173 288.3 54.1947 287.831 54.6C287.383 54.984 286.999 55.528 286.679 56.232C286.38 56.9147 286.177 57.7893 286.071 58.856ZM300.102 69V51.848H302.534V53.352C303.238 52.968 303.91 52.6373 304.55 52.36C305.212 52.0827 305.873 51.88 306.534 51.752C307.217 51.6027 307.932 51.528 308.678 51.528C309.724 51.528 310.598 51.7093 311.302 52.072C312.006 52.4347 312.54 52.968 312.902 53.672C313.265 54.3547 313.446 55.208 313.446 56.232V69H310.79V56.968C310.79 55.944 310.524 55.1653 309.99 54.632C309.478 54.0773 308.689 53.8 307.622 53.8C307.046 53.8 306.492 53.864 305.958 53.992C305.425 54.12 304.902 54.2907 304.39 54.504C303.878 54.696 303.334 54.9413 302.758 55.24V69H300.102ZM322.661 69.32C321.616 69.32 320.741 69.128 320.037 68.744C319.355 68.3387 318.843 67.7413 318.501 66.952C318.181 66.1413 318.021 65.1387 318.021 63.944V53.864H315.077V52.072L318.021 51.848L318.373 47.784H320.709V51.848H326.437V53.864H320.709V63.752C320.709 64.904 320.923 65.736 321.349 66.248C321.797 66.76 322.523 67.016 323.525 67.016C324.037 67.016 324.549 66.9733 325.061 66.888C325.573 66.7813 326.085 66.6533 326.597 66.504L326.981 68.584C326.192 68.84 325.435 69.0213 324.709 69.128C323.984 69.256 323.301 69.32 322.661 69.32Z" fill="#333"/>
<defs>
<linearGradient id="paint0_linear_383_18" x1="9.28507" y1="6.79186" x2="67.2308" y2="64.7376" gradientUnits="userSpaceOnUse">
<stop stop-color="#055567"/>
<stop offset="0.498264" stop-color="#5B3528"/>
<stop offset="1" stop-color="#490050"/>
</linearGradient>
</defs>
</svg>
